<svg width="20" height="20" viewBox="0 0 20 20" fill="none" xmlns="http://www.w3.org/2000/svg">
<path d="M15.3329 7.14143L15.2857 7H13.7143L13.6671 7.14143L9 19.5714H10.6814L11.8584 16.4286H17.1416L18.3186 19.5714H20L15.3329 7.14143ZM12.4461 14.8571L14.5 9.37286L16.5539 14.8571H12.4461Z" fill="white"/>
<path d="M11 3.14286H14.1429V1.57143H7.85714V0H6.28571V1.57143H0V3.14286H9.42857C9.42857 5.665 8.00171 8.05043 6.28571 10.0194C4.94214 8.47471 3.75886 6.65971 3.32357 4.71429H1.73014C2.18271 7.13429 3.61743 9.339 5.21714 11.1619C2.87729 13.497 0.424286 15.0134 0.377143 15.0433L1.19271 16.3869C1.39386 16.2643 3.883 14.7337 6.303 12.3216C7.23329 13.2503 8.16357 14.0549 8.943 14.6646L9.911 13.4279C9.163 12.8433 8.26414 12.0717 7.37 11.1791C9.32957 8.95557 11 6.18043 11 3.14286Z" fill="white"/>
</svg>
