<svg width="15" height="15" viewBox="0 0 15 15" fill="none" xmlns="http://www.w3.org/2000/svg">
<path d="M9.58333 11.6667C9.47283 11.6667 9.36685 11.7106 9.2887 11.7887C9.21056 11.8668 9.16667 11.9728 9.16667 12.0833V14.1667H0.833333V0.833333H9.16667V2.91667C9.16667 3.02717 9.21056 3.13315 9.2887 3.21129C9.36685 3.28943 9.47283 3.33333 9.58333 3.33333C9.69384 3.33333 9.79982 3.28943 9.87796 3.21129C9.9561 3.13315 10 3.02717 10 2.91667V0.416667C10 0.30616 9.9561 0.200179 9.87796 0.122039C9.79982 0.0438988 9.69384 0 9.58333 0H0.416667C0.30616 0 0.200179 0.0438988 0.122039 0.122039C0.0438988 0.200179 0 0.30616 0 0.416667V14.5833C0 14.6938 0.0438988 14.7998 0.122039 14.878C0.200179 14.9561 0.30616 15 0.416667 15H9.58333C9.69384 15 9.79982 14.9561 9.87796 14.878C9.9561 14.7998 10 14.6938 10 14.5833V12.0833C10 11.9728 9.9561 11.8668 9.87796 11.7887C9.79982 11.7106 9.69384 11.6667 9.58333 11.6667Z" fill="#211F48"/>
<path d="M14.8499 7.17917L12.3499 5.09583C12.3078 5.06082 12.2592 5.03444 12.2068 5.01821C12.1545 5.00198 12.0995 4.99621 12.045 5.00124C11.9904 5.00627 11.9374 5.022 11.8889 5.04752C11.8404 5.07305 11.7974 5.10787 11.7624 5.15C11.7274 5.19213 11.701 5.24075 11.6848 5.29308C11.6686 5.3454 11.6628 5.40042 11.6678 5.45497C11.6729 5.50952 11.6886 5.56255 11.7141 5.61103C11.7396 5.65951 11.7745 5.70248 11.8166 5.7375L13.4333 7.08333H6.24992C6.13941 7.08333 6.03343 7.12723 5.95529 7.20537C5.87715 7.28351 5.83325 7.38949 5.83325 7.5C5.83325 7.61051 5.87715 7.71649 5.95529 7.79463C6.03343 7.87277 6.13941 7.91667 6.24992 7.91667H13.4333L11.8166 9.2625C11.7744 9.29748 11.7395 9.34044 11.714 9.38892C11.6884 9.4374 11.6726 9.49044 11.6676 9.54501C11.6626 9.59959 11.6684 9.65462 11.6846 9.70695C11.7009 9.75929 11.7273 9.8079 11.7624 9.85C11.8016 9.89704 11.8507 9.93486 11.9061 9.96079C11.9616 9.98671 12.022 10.0001 12.0833 10C12.1806 10.0002 12.275 9.96629 12.3499 9.90417L14.8499 7.82084C14.8971 7.78174 14.9351 7.73271 14.9612 7.67726C14.9872 7.6218 15.0007 7.56128 15.0007 7.5C15.0007 7.43872 14.9872 7.3782 14.9612 7.32275C14.9351 7.26729 14.8971 7.21827 14.8499 7.17917Z" fill="#211F48"/>
</svg>
