<svg width="77" height="53" viewBox="0 0 77 53" fill="none" xmlns="http://www.w3.org/2000/svg">
<path d="M30.9542 26.3025C30.9542 25.0387 32.8563 25.0387 32.8563 26.3025V30.4098C32.8563 31.3577 30.9542 31.3577 30.9542 30.4098V26.3025ZM44.2687 26.3025C44.2687 25.0387 46.1707 25.0387 46.1707 26.3025V30.4098C46.1707 31.3577 44.2687 31.3577 44.2687 30.4098V26.3025ZM71.8486 32.6215C72.7996 31.6736 73.7506 33.2534 72.7996 33.8852C57.5831 46.2072 19.2248 46.2072 4.32531 33.8852C3.37428 33.2534 4.32531 31.6736 5.27634 32.6215C19.8588 44.3115 57.2661 44.3115 71.8486 32.6215ZM62.3383 43.9955C48.3898 48.1028 28.4181 48.1028 14.7867 43.9955C28.1011 56.0015 49.0238 56.0015 62.3383 43.9955ZM76.6037 29.462C76.6037 28.1982 76.6037 26.6185 76.6037 25.0387C68.9955 35.465 52.5109 30.4098 52.5109 17.456C52.5109 12.4009 55.681 7.6617 60.4362 5.45007C48.7068 -1.81669 28.4181 -1.81669 16.6887 5.45007C29.6862 11.1371 25.565 30.7258 11.2995 30.7258C7.17841 30.7258 3.05727 28.5142 0.521185 25.0387C0.521185 26.6185 0.521185 28.1982 0.521185 29.462C0.521185 50.3145 76.6037 50.3145 76.6037 29.462ZM62.0212 18.4039C60.7532 18.4039 60.7532 16.5082 62.0212 16.5082H69.6295C70.5805 16.5082 70.5805 18.4039 69.6295 18.4039H62.0212ZM7.49542 18.4039C6.22738 18.4039 6.22738 16.5082 7.49542 16.5082H15.1037C16.3717 16.5082 16.3717 18.4039 15.1037 18.4039H7.49542ZM65.8254 6.08197C50.6089 6.08197 50.6089 28.8301 65.8254 28.8301C80.7249 28.8301 80.7249 6.08197 65.8254 6.08197ZM19.5418 9.55738C15.1037 5.13413 7.81243 5.13413 3.37428 9.55738C-3.91696 16.8241 1.47222 28.8301 11.2995 28.8301C21.4439 28.8301 26.5161 16.5082 19.5418 9.55738Z" fill="#CA1395"/>
</svg>
