<svg width="8" height="9" viewBox="0 0 8 9" fill="none" xmlns="http://www.w3.org/2000/svg">
<path d="M5.69599 1.9736C5.69599 0.885869 4.81179 0 3.72238 0C2.63298 0 1.74878 0.884201 1.74878 1.9736C1.74878 3.06134 2.63298 3.94554 3.72238 3.94554C4.81179 3.94554 5.69599 3.06134 5.69599 1.9736Z" fill="white" fill-opacity="0.33"/>
<path d="M0.387464 6.60146L0.118867 7.06692C-0.0396222 7.34052 -0.0396222 7.66918 0.118867 7.94278C0.277356 8.21638 0.560967 8.37987 0.876277 8.37987H6.56853C6.88551 8.37987 7.16912 8.21638 7.32594 7.94278C7.48276 7.66918 7.48443 7.34219 7.32594 7.06692L7.05734 6.60146C6.37167 5.41363 5.09375 4.67624 3.7224 4.67624C2.35106 4.67624 1.07314 5.41363 0.387464 6.60146Z" fill="white" fill-opacity="0.33"/>
</svg>
